# xmcd
#
# Track frame offsets:
#	150
#	16694
#	30043
#	52772
#	75375
#	91434
#	112793
#	127597
#	146881
#	166574
#	188242
#	203507
#
# Disc length: 2937 seconds
#
# Revision: 0
# Processed by: cddbd v1.5.1PL0 Copyright (c) Steve Scherf et al.
# Submitted via: dBpowerAMP V4.0
#
DISCID=750b770c
DTITLE=Victoria Woodworth - Faultline
DYEAR=2003
DGENRE=Country
TTITLE0=San Andreas
TTITLE1=Seems to Me
TTITLE2=Faithful
TTITLE3=Eyes Wide Open
TTITLE4=Jumpin In
TTITLE5=Misery
TTITLE6=Way Long Gone
TTITLE7=What Shade
TTITLE8=Ain't I the Kind
TTITLE9=Paris
TTITLE10=Wild Wild Wind
TTITLE11=Cross upon a Cord
EXTD=
EXTT0=
EXTT1=
EXTT2=
EXTT3=
EXTT4=
EXTT5=
EXTT6=
EXTT7=
EXTT8=
EXTT9=
EXTT10=
EXTT11=
PLAYORDER=
